<?xml version="1.0" encoding="UTF-8"?><svg id="Ebene_2" xmlns="http://www.w3.org/2000/svg" viewBox="0 0 499.84 51.66"><defs><style>.cls-1{fill:#b2b6d4;}</style></defs><g id="Ebene_1-2"><g><path class="cls-1" d="M38.38,51h-8.37V29.55H8.4v21.45H0V2.66H8.4V22.78H30.02V2.66h14l-5.63,48.34Z"/><path class="cls-1" d="M46.02,32.71c0-3.52,.7-6.69,2.09-9.51s3.35-4.99,5.88-6.51,5.42-2.27,8.7-2.27c4.85,0,8.78,1.56,11.8,4.68s4.65,7.26,4.9,12.42l.03,1.89c0,3.54-.68,6.71-2.04,9.5s-3.31,4.95-5.84,6.47c-2.53,1.53-5.46,2.29-8.78,2.29-5.07,0-9.13-1.69-12.17-5.06-3.04-3.38-4.57-7.88-4.57-13.5v-.4Zm8.07,.7c0,3.7,.76,6.59,2.29,8.68s3.65,3.14,6.38,3.14,4.84-1.06,6.36-3.19c1.52-2.12,2.27-5.24,2.27-9.33,0-3.63-.78-6.51-2.34-8.63s-3.68-3.19-6.36-3.19-4.73,1.05-6.28,3.14c-1.55,2.09-2.32,5.22-2.32,9.38Z"/><path class="cls-1" d="M106.38,41.24c0-1.44-.59-2.53-1.78-3.29-1.18-.75-3.15-1.42-5.89-1.99-2.75-.58-5.04-1.31-6.87-2.19-4.03-1.95-6.04-4.77-6.04-8.47,0-3.1,1.31-5.69,3.92-7.77,2.61-2.08,5.93-3.12,9.96-3.12,4.29,0,7.76,1.06,10.41,3.19,2.65,2.12,3.97,4.88,3.97,8.27h-8.07c0-1.55-.58-2.84-1.73-3.87-1.15-1.03-2.68-1.54-4.58-1.54-1.77,0-3.22,.41-4.33,1.23-1.12,.82-1.68,1.92-1.68,3.29,0,1.24,.52,2.2,1.56,2.89,1.04,.69,3.14,1.38,6.31,2.08,3.17,.7,5.65,1.53,7.45,2.49,1.8,.96,3.14,2.12,4.02,3.47,.87,1.35,1.31,2.99,1.31,4.91,0,3.23-1.34,5.85-4.02,7.85-2.68,2-6.19,3-10.53,3-2.94,0-5.57-.53-7.87-1.59-2.3-1.06-4.1-2.52-5.38-4.38-1.28-1.86-1.93-3.86-1.93-6.01h7.84c.11,1.9,.8,3.92,2.13,4.95s3.12,.99,5.31,.99,3.74-.4,4.85-1.21c1.11-.81,1.66-1.87,1.66-3.17Z"/><path class="cls-1" d="M131.45,6.34V15.07h5.45l.89,5.98h-6.34v20.05c0,1.37,.27,2.36,.81,2.97,.54,.61,1.51,.91,2.91,.91,.93,0,1.87-.11,2.82-.33v6.24c-1.84,.51-3.61,.76-5.31,.76-6.2,0-9.3-3.42-9.3-10.26V21.05h-5.91v-5.98h5.91V6.34h8.07Z"/><path class="cls-1" d="M159.77,51.66c-5.11,0-9.26-1.61-12.43-4.83-3.18-3.22-4.76-7.51-4.76-12.87v-1c0-3.59,.69-6.79,2.08-9.61,1.38-2.82,3.33-5.02,5.83-6.59,2.5-1.57,5.29-2.36,8.37-2.36,4.89,0,8.67,1.56,11.34,4.68,2.67,3.12,4,7.54,4,13.25v3.25h-23.47c.24,2.97,1.23,5.31,2.97,7.04,1.74,1.73,3.92,2.59,6.56,2.59,3.7,0,6.71-1.49,9.03-4.48l4.35,4.15c-1.44,2.15-3.36,3.81-5.76,5-2.4,1.18-5.1,1.78-8.08,1.78Zm-.96-30.78c-2.21,0-4,.77-5.36,2.32s-2.23,3.71-2.61,6.47h15.37v-.6c-.18-2.7-.9-4.74-2.16-6.13s-3.01-2.08-5.25-2.08Z"/><path class="cls-1" d="M199.25,22.45c-1.06-.18-2.16-.27-3.29-.27-3.7,0-6.19,1.42-7.47,4.25v24.57h-8.07V15.07h7.7l.2,4.02c1.95-3.12,4.65-4.68,8.1-4.68,1.15,0,2.1,.16,2.86,.46l-.03,7.57Z"/><path class="cls-1" d="M220,33.7h-17.43v-6.51h17.43v6.51Z"/><path class="cls-1" d="M254.97,30.51h-18.81c-.18,0-.33,.15-.33,.33v19.83c0,.18-.15,.33-.33,.33h-7.75c-.18,0-.33-.15-.33-.33V2.98c0-.18,.15-.33,.33-.33h30.06c.18,0,.33,.15,.33,.33v6.12c0,.18-.15,.33-.33,.33h-21.66c-.18,0-.33,.15-.33,.33v13.73c0,.18,.15,.33,.33,.33h18.81c.18,0,.33,.15,.33,.33v6.06c0,.18-.15,.33-.33,.33Z"/><path class="cls-1" d="M264.03,5.74c0-1.24,.39-2.27,1.18-3.09,.79-.82,1.91-1.23,3.37-1.23s3.66,.92,4.76,1.23c1.58,.44,5.78,1.82,5.78,3.05s-5.44,2.81-6.94,3.35c-1.07,.38-2.14,.94-3.6,.94s-2.58-.4-3.37-1.21c-.79-.81-1.18-1.82-1.18-3.04Zm8.57,45.26h-8.07V15.07h8.07V51Z"/><path class="cls-1" d="M288.87,15.07l.23,4.15c2.66-3.21,6.14-4.81,10.46-4.81,7.48,0,11.29,4.28,11.42,12.85v23.74h-8.07V27.72c0-2.28-.49-3.97-1.48-5.06-.99-1.1-2.6-1.64-4.83-1.64-3.25,0-5.68,1.47-7.27,4.42v25.57h-8.07V15.07h7.6Z"/><path class="cls-1" d="M317.69,32.77c0-5.53,1.28-9.98,3.85-13.33,2.57-3.35,6.01-5.03,10.33-5.03,3.81,0,6.88,1.33,9.23,3.98V0h9.25l-1.18,51h-7.3l-.4-3.72c-2.41,2.92-5.63,4.38-9.66,4.38s-7.61-1.69-10.21-5.08c-2.6-3.39-3.9-7.99-3.9-13.81Zm8.07,.7c0,3.65,.7,6.5,2.11,8.55,1.41,2.05,3.4,3.07,5.99,3.07,3.3,0,5.71-1.47,7.24-4.42v-15.34c-1.48-2.88-3.87-4.32-7.17-4.32-2.61,0-4.63,1.04-6.04,3.1-1.42,2.07-2.12,5.19-2.12,9.35Z"/><path class="cls-1" d="M373.4,51.66c-5.11,0-9.26-1.61-12.43-4.83-3.18-3.22-4.76-7.51-4.76-12.87v-1c0-3.59,.69-6.79,2.08-9.61,1.38-2.82,3.33-5.02,5.83-6.59,2.5-1.57,5.29-2.36,8.37-2.36,4.89,0,8.67,1.56,11.34,4.68,2.67,3.12,4,7.54,4,13.25v3.25h-23.47c.24,2.97,1.23,5.31,2.97,7.04,1.74,1.73,3.92,2.59,6.56,2.59,3.7,0,6.71-1.49,9.03-4.48l4.35,4.15c-1.44,2.15-3.36,3.81-5.76,5-2.4,1.18-5.1,1.78-8.08,1.78Zm-.96-30.78c-2.21,0-4,.77-5.36,2.32s-2.23,3.71-2.61,6.47h15.37v-.6c-.18-2.7-.9-4.74-2.16-6.13s-3.01-2.08-5.25-2.08Z"/><path class="cls-1" d="M412.88,22.45c-1.06-.18-2.16-.27-3.29-.27-3.7,0-6.19,1.42-7.47,4.25v24.57h-8.07V15.07h7.7l.2,4.02c1.95-3.12,4.65-4.68,8.1-4.68,1.15,0,2.1,.16,2.86,.46l-.03,7.57Z"/><path class="cls-1" d="M417.26,42.5c1.5,0,2.67,.43,3.49,1.28,.82,.85,1.23,1.92,1.23,3.2s-.41,2.31-1.23,3.14c-.82,.83-1.98,1.25-3.49,1.25s-2.58-.41-3.42-1.23c-.84-.82-1.26-1.87-1.26-3.15s.41-2.35,1.23-3.2c.82-.85,1.97-1.28,3.45-1.28Z"/><path class="cls-1" d="M429.72,32.77c0-5.53,1.28-9.98,3.85-13.33,2.57-3.35,6.01-5.03,10.33-5.03,3.81,0,6.88,1.33,9.23,3.98V0h8.07V51h-7.3l-.4-3.72c-2.41,2.92-5.63,4.38-9.66,4.38s-7.61-1.69-10.21-5.08c-2.6-3.39-3.9-7.99-3.9-13.81Zm8.07,.7c0,3.65,.7,6.5,2.11,8.55,1.41,2.05,3.4,3.07,5.99,3.07,3.3,0,5.71-1.47,7.24-4.42v-15.34c-1.48-2.88-3.87-4.32-7.17-4.32-2.61,0-4.63,1.04-6.04,3.1-1.42,2.07-2.12,5.19-2.12,9.35Z"/><path class="cls-1" d="M485.43,51.66c-5.11,0-9.26-1.61-12.43-4.83-3.18-3.22-4.76-7.51-4.76-12.87v-1c0-3.59,.69-6.79,2.08-9.61,1.38-2.82,3.33-5.02,5.83-6.59,2.5-1.57,5.29-2.36,8.37-2.36,4.89,0,8.67,1.56,11.34,4.68,2.67,3.12,4,7.54,4,13.25v3.25h-23.47c.24,2.97,1.23,5.31,2.97,7.04,1.74,1.73,3.92,2.59,6.56,2.59,3.7,0,6.71-1.49,9.03-4.48l4.35,4.15c-1.44,2.15-3.36,3.81-5.76,5-2.4,1.18-5.1,1.78-8.08,1.78Zm-.96-30.78c-2.21,0-4,.77-5.36,2.32s-2.23,3.71-2.61,6.47h15.37v-.6c-.18-2.7-.9-4.74-2.16-6.13s-3.01-2.08-5.25-2.08Z"/></g></g></svg>